<svg height="471pt" viewBox="-10 0 471 471.664" width="471pt" xmlns="http://www.w3.org/2000/svg"><path d="m.332031 415.664062h272v56h-272zm0 0" fill="#ea9d2d"/><path d="m72.332031 215.664062h128c39.765625 0 72 32.234376 72 72v24h-272v-24c0-39.765624 32.234375-72 72-72zm0 0" fill="#ea9d2d"/><path d="m16.332031 343.664062h240v72h-240zm0 0" fill="#834b10"/><path d="m16.332031 391.664062h240v24h-240zm0 0" fill="#b6534f"/><path d="m256.332031 343.664062h-32l-24 24-24-24h-160v-32h240zm0 0" fill="#fbb540"/><g fill="#fbd699"><path d="m128.332031 239.664062h16v16h-16zm0 0"/><path d="m96.332031 255.664062h16v16h-16zm0 0"/><path d="m160.332031 255.664062h16v16h-16zm0 0"/><path d="m192.332031 239.664062h16v16h-16zm0 0"/><path d="m64.332031 239.664062h16v16h-16zm0 0"/></g><path d="m72.332031 439.664062h16v32h-16zm0 0" fill="#c38325"/><path d="m40.332031 439.664062h16v32h-16zm0 0" fill="#c38325"/><path d="m393.578125 471.664062h-146.492187c-8.335938 0-15.269532-6.398437-15.945313-14.703124l-22.808594-281.296876v-64h224v64l-22.808593 281.296876c-.675782 8.304687-7.609376 14.703124-15.945313 14.703124zm0 0" fill="#e4e4e2"/><path d="m272.332031 239.664062h48v232h-48zm0 0" fill="#4799cf"/><path d="m213.523438 239.664062 17.601562 217.296876c.675781 8.308593 7.621094 14.710937 15.960938 14.703124h25.246093v-232zm0 0" fill="#6cbae5"/><path d="m208.332031 111.664062h224v64h-224zm0 0" fill="#dbdbdb"/><path d="m376.332031 247.664062h-16v-216c0-3.535156 2.320313-6.648437 5.703125-7.664062l80-24 4.59375 15.328125-74.296875 22.289063zm0 0" fill="#a45e14"/><path d="m360.332031 111.664062h16v128h-16zm0 0" fill="#834b10"/><path d="m360.332031 175.664062h16v72h-16zm0 0" fill="#985713"/><path d="m320.332031 239.664062h48v232h-48zm0 0" fill="#6cbae5"/><path d="m368.332031 239.664062v232h25.246094c8.335937 0 15.269531-6.398437 15.945313-14.703124l17.617187-217.296876zm0 0" fill="#4799cf"/></svg>