<svg height="479pt" viewBox="-10 0 479 479.664" width="479pt" xmlns="http://www.w3.org/2000/svg"><path d="m16.332031 407.664062h-8c-4.417969 0-8 3.582032-8 8v56c0 4.417969 3.582031 8 8 8h393.238281c12.480469-.066406 22.851563-9.625 23.929688-22.054687l22.832031-281.945313v-64c0-4.417968-3.582031-8-8-8h-56v-66.046874l74.296875-22.289063-4.59375-15.328125-80 24c-3.382812 1.015625-5.703125 4.128906-5.703125 7.664062v72h-152c-4.417969 0-8 3.582032-8 8v64.648438l2.550781 31.496094c-.863281 0-1.703124-.144532-2.574218-.144532h-127.976563c-44.164062.046876-79.953125 35.835938-80 80v24c0 4.417969 3.582031 8 8 8h8zm16-56h148.6875l21.65625 21.65625c3.125 3.121094 8.1875 3.121094 11.3125 0l9.601563-9.601562.925781 11.945312h-192.183594zm304-104h32v216h-32zm-16 216h-32v-216h32zm111.320313-280-3.886719 48h-43.433594v-48zm-63.320313 48h-32v-48h32zm-48 0h-32v-48h32zm-48 0h-43.457031l-3.894531-48h47.351562zm-240 160h193.488281l1.296876 16h-194.785157zm-16 32h212.078125l3.242188 40h-135.320313v-24h-16v24h-16v-24h-16v24h-32zm213.839844-176h42.160156v216h-24.625zm179.375 208.640626c-.332031 4.164062-3.820313 7.371093-8 7.359374h-17.214844v-216h42.136719zm22.785156-336.640626v48h-48v-48zm-208 0h144v48h-144zm-208 168c.039063-35.328124 28.671875-63.960937 64-64h128c1.3125 0 2.582031.136719 3.878907.214844l1.28125 15.785156h-13.160157v16h14.457031l3.894532 48h-202.351563zm203.648438 32 1.878906 23.199219-13.527344 13.488281-18.34375-18.34375c-1.5-1.5-3.535156-2.34375-5.65625-2.34375h-152v-16zm0 0"/><path d="m136.332031 239.664062h16v16h-16zm0 0"/><path d="m104.332031 255.664062h16v16h-16zm0 0"/><path d="m168.332031 255.664062h16v16h-16zm0 0"/><path d="m72.332031 239.664062h16v16h-16zm0 0"/></svg>