<?xml version="1.0" encoding="iso-8859-1"?>
<!-- Generator: Adobe Illustrator 19.0.0, SVG Export Plug-In . SVG Version: 6.00 Build 0)  -->
<svg version="1.1" id="Layer_1" xmlns="http://www.w3.org/2000/svg" xmlns:xlink="http://www.w3.org/1999/xlink" x="0px" y="0px"
	 viewBox="0 0 512 512" style="enable-background:new 0 0 512 512;" xml:space="preserve">
<path style="fill:#1E0478;" d="M506.34,109.739c4.802,5.883,6.663,13.526,5.141,20.956l-35.173,170.674
	c-2.388,11.641-12.747,20.076-24.614,20.076H140.794l7.404,35.915h301.159c6.952,0,12.571,5.632,12.571,12.571
	c0,6.939-5.619,12.571-12.571,12.571H148.198c-11.879,0-22.225-8.435-24.626-20.063L62.742,67.174L7.568,43.214
	c-6.373-2.753-9.29-10.157-6.524-16.531s10.17-9.29,16.531-6.524l55.186,23.947c7.492,3.256,12.96,9.981,14.607,17.989l7.907,38.391
	h391.581C494.436,100.487,501.551,103.856,506.34,109.739z M451.695,296.302l35.161-170.674H100.454l35.161,170.674H451.695z"/>
<path style="fill:#94E7EF;" d="M486.855,125.629l-35.161,170.674h-316.08l-35.161-170.674H486.855z M396.283,178.325
	c0-6.939-5.619-12.571-12.571-12.571h-180.14c-6.952,0-12.571,5.632-12.571,12.571s5.619,12.571,12.571,12.571h180.14
	C390.664,190.896,396.283,185.264,396.283,178.325z M386.478,243.606c0-6.939-5.619-12.571-12.571-12.571H213.378
	c-6.952,0-12.571,5.632-12.571,12.571s5.619,12.571,12.571,12.571h160.529C380.858,256.176,386.478,250.545,386.478,243.606z"/>
<g>
	<path style="fill:#1E0478;" d="M372.625,402.827c24.84,0,45.029,20.201,45.029,45.029c0,24.827-20.189,45.029-45.029,45.029
		c-24.827,0-45.029-20.201-45.029-45.029C327.596,423.029,347.797,402.827,372.625,402.827z M392.512,447.856
		c0-10.962-8.913-19.887-19.887-19.887c-10.962,0-19.887,8.925-19.887,19.887c0,10.962,8.925,19.887,19.887,19.887
		C383.599,467.743,392.512,458.818,392.512,447.856z"/>
	<path style="fill:#1E0478;" d="M383.712,165.755c6.952,0,12.571,5.632,12.571,12.571s-5.619,12.571-12.571,12.571h-180.14
		c-6.952,0-12.571-5.632-12.571-12.571s5.619-12.571,12.571-12.571H383.712z"/>
</g>
<path style="fill:#9B8CCC;" d="M372.625,427.969c10.974,0,19.887,8.925,19.887,19.887c0,10.962-8.913,19.887-19.887,19.887
	c-10.962,0-19.887-8.925-19.887-19.887C352.738,436.894,361.663,427.969,372.625,427.969z"/>
<g>
	<path style="fill:#1E0478;" d="M373.907,231.035c6.952,0,12.571,5.632,12.571,12.571s-5.619,12.571-12.571,12.571H213.378
		c-6.952,0-12.571-5.632-12.571-12.571s5.619-12.571,12.571-12.571H373.907z"/>
	<path style="fill:#1E0478;" d="M214.685,402.827c24.827,0,45.029,20.201,45.029,45.029c0,24.827-20.201,45.029-45.029,45.029
		s-45.029-20.201-45.029-45.029C169.656,423.029,189.858,402.827,214.685,402.827z M234.572,447.856
		c0-10.962-8.925-19.887-19.887-19.887c-10.962,0-19.887,8.925-19.887,19.887c0,10.962,8.925,19.887,19.887,19.887
		C225.647,467.743,234.572,458.818,234.572,447.856z"/>
</g>
<path style="fill:#9B8CCC;" d="M214.685,427.969c10.962,0,19.887,8.925,19.887,19.887c0,10.962-8.925,19.887-19.887,19.887
	c-10.962,0-19.887-8.925-19.887-19.887C194.798,436.894,203.723,427.969,214.685,427.969z"/>
<g>
</g>
<g>
</g>
<g>
</g>
<g>
</g>
<g>
</g>
<g>
</g>
<g>
</g>
<g>
</g>
<g>
</g>
<g>
</g>
<g>
</g>
<g>
</g>
<g>
</g>
<g>
</g>
<g>
</g>
</svg>
